<svg xmlns="http://www.w3.org/2000/svg" width="36" height="36" viewBox="0 0 36 36" fill="none">
  <path fill-rule="evenodd" clip-rule="evenodd" d="M28.5908 30C30.3083 30 31.7141 28.6352 31.7141 26.9663V9.03468C31.715 8.25549 31.4113 7.47629 30.8028 6.88519C29.588 5.70476 27.6002 5.70511 26.3856 6.88519L19.7681 13.3149C18.5533 14.495 18.5531 16.4262 19.7681 17.6065C20.9828 18.7866 22.9707 18.7869 24.1854 17.6065L25.4672 16.3611V26.9665C25.4672 28.6354 26.8732 30 28.5908 30Z" fill="white"/>
  <path fill-rule="evenodd" clip-rule="evenodd" d="M28.5908 30C30.3083 30 31.7141 28.6352 31.7141 26.9663V9.03468C31.715 8.25549 31.4113 7.47629 30.8028 6.88519C29.588 5.70476 27.6002 5.70511 26.3856 6.88519L19.7681 13.3149C18.5533 14.495 18.5531 16.4262 19.7681 17.6065C20.9828 18.7866 22.9707 18.7869 24.1854 17.6065L25.4672 16.3611V26.9665C25.4672 28.6354 26.8732 30 28.5908 30Z" fill="white"/>
  <path fill-rule="evenodd" clip-rule="evenodd" d="M28.5908 30C30.3083 30 31.7141 28.6352 31.7141 26.9663V9.03468C31.715 8.25549 31.4113 7.47629 30.8028 6.88519C29.588 5.70476 27.6002 5.70511 26.3856 6.88519L19.7681 13.3149C18.5533 14.495 18.5531 16.4262 19.7681 17.6065C20.9828 18.7866 22.9707 18.7869 24.1854 17.6065L25.4672 16.3611V26.9665C25.4672 28.6354 26.8732 30 28.5908 30Z" fill="url(#paint0_linear_355_1980)"/>
  <path fill-rule="evenodd" clip-rule="evenodd" d="M28.5908 30C30.3083 30 31.7141 28.6352 31.7141 26.9663V9.03468C31.715 8.25549 31.4113 7.47629 30.8028 6.88519C29.588 5.70476 27.6002 5.70511 26.3856 6.88519L19.7681 13.3149C18.5533 14.495 18.5531 16.4262 19.7681 17.6065C20.9828 18.7866 22.9707 18.7869 24.1854 17.6065L25.4672 16.3611V26.9665C25.4672 28.6354 26.8732 30 28.5908 30Z" fill="url(#paint1_linear_355_1980)"/>
  <path fill-rule="evenodd" clip-rule="evenodd" d="M4.28565 9.03466C4.28474 8.25547 4.58838 7.47628 5.19676 6.88519C6.41152 5.70476 8.39937 5.70511 9.61413 6.88519L16.2316 13.3149C17.4464 14.495 17.4466 16.4262 16.2316 17.6064C15.0171 18.7865 13.0289 18.7868 11.8143 17.6064L10.5323 16.3611V26.9664C10.5323 28.6352 9.12652 30 7.40908 30C5.69145 30 4.28565 28.6352 4.28565 26.9664V9.03466Z" fill="#FAAD14"/>
  <defs>
    <linearGradient id="paint0_linear_355_1980" x1="77.6207" y1="-26.9899" x2="180.856" y2="61.5471" gradientUnits="userSpaceOnUse">
      <stop stop-color="#0096C8"/>
      <stop offset="1" stop-color="#2850A4"/>
    </linearGradient>
    <linearGradient id="paint1_linear_355_1980" x1="25.2855" y1="27.3788" x2="25.2855" y2="0.0343248" gradientUnits="userSpaceOnUse">
      <stop stop-color="#007B82"/>
      <stop offset="1" stop-color="#009C4D"/>
    </linearGradient>
  </defs>
</svg>